<?xml version="1.0" encoding="iso-8859-1"?>
<!-- Generator: Adobe Illustrator 19.0.0, SVG Export Plug-In . SVG Version: 6.00 Build 0)  -->
<svg version="1.1" id="Layer_1" xmlns="http://www.w3.org/2000/svg" xmlns:xlink="http://www.w3.org/1999/xlink" x="0px" y="0px"
	 viewBox="0 0 512 512" style="enable-background:new 0 0 512 512;" xml:space="preserve">
<g>
	<g>
		<path d="M475.764,47.02H36.336C15.62,47.02,0,61.54,0,80.792V336.98c0,20.268,16.98,38.04,36.336,38.04H144c2.208,0,4-1.788,4-4
			c0-2.212-1.792-4-4-4H36.336C21.504,367.02,8,352.704,8,336.98V80.792C8,66.1,20.18,55.02,36.336,55.02h439.428
			C491.86,55.02,504,66.1,504,80.792V336.98c0,16.004-13.196,30.04-28.236,30.04H372c-2.208,0-4,1.788-4,4c0,2.212,1.792,4,4,4
			h103.764c19.304,0,36.236-17.772,36.236-38.04V80.792C512,61.54,496.42,47.02,475.764,47.02z"/>
	</g>
</g>
<g>
	<g>
		<path d="M364,108.652c-26.468,0-48,21.532-48,48c0,26.468,21.532,48,48,48c5.784,0,11.448-1.02,16.828-3.036
			c2.068-0.776,3.116-3.08,2.344-5.148c-0.776-2.068-3.088-3.116-5.148-2.344c-4.484,1.68-9.204,2.528-14.028,2.528
			c-22.056,0-40-17.944-40-40c0-22.056,17.944-40,40-40c22.056,0,40,17.944,40,40c0,10.248-3.872,19.992-10.904,27.444
			c-1.512,1.608-1.44,4.14,0.168,5.656c1.604,1.508,4.14,1.436,5.656-0.168c8.436-8.94,13.084-20.636,13.084-32.932
			C412,130.184,390.468,108.652,364,108.652z"/>
	</g>
</g>
<g>
	<g>
		<path d="M428,108.652c-6.628,0-13.048,1.324-19.084,3.94c-2.028,0.876-2.96,3.232-2.08,5.26c0.876,2.028,3.236,2.956,5.26,2.08
			c5.028-2.176,10.38-3.28,15.904-3.28c22.056,0,40,17.944,40,40c0,22.056-17.944,40-40,40c-22.056,0-40-17.944-40-40
			c0-7.776,2.236-15.32,6.472-21.82c1.292-1.988,2.784-3.884,4.44-5.64c1.512-1.608,1.44-4.14-0.168-5.656
			c-1.608-1.512-4.14-1.44-5.656,0.168c-1.984,2.104-3.776,4.38-5.324,6.764c-5.08,7.796-7.764,16.852-7.764,26.184
			c0,26.468,21.532,48,48,48c26.468,0,48-21.532,48-48C476,130.184,454.468,108.652,428,108.652z"/>
	</g>
</g>
<g>
	<g>
		<path d="M132,115.02H68c-15.44,0-28,12.56-28,28v32c0,15.44,12.56,28,28,28h64c15.44,0,28-12.56,28-28v-32
			C160,127.58,147.44,115.02,132,115.02z M152,175.02c0,11.028-8.972,20-20,20H68c-11.028,0-20-8.972-20-20v-32
			c0-11.028,8.972-20,20-20h64c11.028,0,20,8.972,20,20V175.02z"/>
	</g>
</g>
<g>
	<g>
		<path d="M132,275.02H44c-2.208,0-4,1.788-4,4v28c0,2.212,1.792,4,4,4h88c2.208,0,4-1.788,4-4v-28
			C136,276.808,134.208,275.02,132,275.02z M128,303.02H48v-20h80V303.02z"/>
	</g>
</g>
<g>
	<g>
		<path d="M468,275.02h-88c-2.208,0-4,1.788-4,4v28c0,2.212,1.792,4,4,4h88c2.208,0,4-1.788,4-4v-28
			C472,276.808,470.208,275.02,468,275.02z M464,303.02h-80v-20h80V303.02z"/>
	</g>
</g>
<g>
	<g>
		<path d="M128,167.02H44c-2.208,0-4,1.792-4,4s1.792,4,4,4h84c2.208,0,4-1.792,4-4S130.208,167.02,128,167.02z"/>
	</g>
</g>
<g>
	<g>
		<path d="M128,143.02H44c-2.208,0-4,1.792-4,4s1.792,4,4,4h84c2.208,0,4-1.792,4-4S130.208,143.02,128,143.02z"/>
	</g>
</g>
<g>
	<g>
		<path d="M255.844,233.284C191.968,233.284,140,285.252,140,349.128c0,63.88,51.968,115.852,115.844,115.852
			s115.844-51.972,115.844-115.852C371.688,285.252,319.72,233.284,255.844,233.284z M255.844,456.98
			C196.38,456.98,148,408.596,148,349.128c0-59.464,48.38-107.844,107.844-107.844c59.464,0,107.844,48.38,107.844,107.844
			C363.688,408.596,315.308,456.98,255.844,456.98z"/>
	</g>
</g>
<g>
	<g>
		<path d="M333.808,286.296c-1.392-1.716-3.916-1.98-5.628-0.592c-1.716,1.388-1.98,3.908-0.592,5.624
			c13.184,16.28,20.444,36.812,20.444,57.812c0,50.692-41.248,91.936-91.944,91.936s-91.944-41.24-91.944-91.936
			s41.244-91.944,91.944-91.944c18.04,0,35.5,5.22,50.5,15.096c1.84,1.212,4.324,0.704,5.54-1.14c1.216-1.844,0.704-4.324-1.14-5.54
			c-16.308-10.74-35.292-16.416-54.9-16.416c-55.108,0-99.944,44.836-99.944,99.944c0,55.104,44.836,99.936,99.944,99.936
			c55.112,0,99.948-44.832,99.948-99.936C356.036,326.312,348.14,303.992,333.808,286.296z"/>
	</g>
</g>
<g>
	<g>
		<path d="M284.48,327.02H280c-2.208,0-4,1.788-4,4c0,2.212,1.792,4,4,4h4.48c7.712,0,15.52,4.412,15.52,12.844v34.064
			c0,8.624-7.688,17.092-15.52,17.092H227.7c-7.924,0-15.7-8.468-15.7-17.092v-34.064c0-8.432,7.9-12.844,15.7-12.844H260
			c2.208,0,4-1.788,4-4c0-2.212-1.792-4-4-4h-32.3c-13.512,0-23.7,8.96-23.7,20.844v34.064c0,12.896,11.516,25.092,23.7,25.092
			h56.78c12.308,0,23.52-11.96,23.52-25.092v-34.064C308,335.98,297.888,327.02,284.48,327.02z"/>
	</g>
</g>
<g>
	<g>
		<path d="M256,284.88c-19.848,0-36,15.972-36,35.608v6.532c0,2.212,1.792,4,4,4s4-1.788,4-4v-6.532c0-15.22,12.56-27.608,28-27.608
			s28,12.384,28,27.608v6.532c0,2.212,1.792,4,4,4s4-1.788,4-4v-6.532C292,300.852,275.848,284.88,256,284.88z"/>
	</g>
</g>
<g>
	<g>
		<path d="M256.088,344.984c-6.564,0-11.904,5.336-11.904,11.9c0,6.568,5.34,11.908,11.904,11.908
			c6.564,0,11.904-5.34,11.904-11.908C267.992,350.32,262.652,344.984,256.088,344.984z M256.088,360.796
			c-2.152,0-3.904-1.756-3.904-3.908c0-2.148,1.752-3.9,3.904-3.9c2.156,0,3.904,1.752,3.904,3.9
			C259.992,359.044,258.24,360.796,256.088,360.796z"/>
	</g>
</g>
<g>
	<g>
		<path d="M256,363.02c-2.208,0-4,1.788-4,4v16c0,2.212,1.792,4,4,4s4-1.788,4-4v-16C260,364.808,258.208,363.02,256,363.02z"/>
	</g>
</g>
<g>
</g>
<g>
</g>
<g>
</g>
<g>
</g>
<g>
</g>
<g>
</g>
<g>
</g>
<g>
</g>
<g>
</g>
<g>
</g>
<g>
</g>
<g>
</g>
<g>
</g>
<g>
</g>
<g>
</g>
</svg>
