<?xml version="1.0" encoding="iso-8859-1"?>
<!-- Generator: Adobe Illustrator 19.0.0, SVG Export Plug-In . SVG Version: 6.00 Build 0)  -->
<svg version="1.1" id="Layer_1" xmlns="http://www.w3.org/2000/svg" xmlns:xlink="http://www.w3.org/1999/xlink" x="0px" y="0px"
	 viewBox="0 0 290.626 290.626" style="enable-background:new 0 0 290.626 290.626;" xml:space="preserve">
<g>
	<g>
		<g>
			<path d="M243.75,42.188v-18.75C243.75,10.514,233.236,0,220.313,0h-42.188H112.5C99.577,0,89.063,10.514,89.063,23.438v18.75
				H46.875v65.625H14.063C6.309,107.813,0,114.122,0,121.875v75c0,7.753,6.309,14.063,14.063,14.063h32.813v79.688h187.5h9.375
				h46.875V42.188H243.75z M220.313,9.375c7.753,0,14.062,6.309,14.062,14.063v18.75H225V28.125c0-5.17-4.205-9.375-9.375-9.375
				h-14.536c-0.712-3.483-2.259-6.637-4.331-9.375H220.313z M215.626,28.125v14.063h-14.063V28.125H215.626z M9.375,121.876
				c0-2.584,2.1-4.688,4.688-4.688h131.25c2.587,0,4.688,2.105,4.688,4.688v4.688H9.375V121.876z M9.375,135.938H150v9.375H9.375
				V135.938z M14.063,201.563c-2.588,0-4.688-2.101-4.688-4.688v-42.188H150v42.188c0,2.587-2.1,4.688-4.688,4.688H14.063z
				 M234.377,281.25h-0.002H56.25v-70.313h89.063c7.753,0,14.063-6.309,14.063-14.063v-75c0-7.753-6.309-14.063-14.063-14.063H56.25
				v-56.25h32.813v18.75h9.375V23.438c0-7.753,6.309-14.063,14.063-14.063h65.625c7.753,0,14.063,6.309,14.063,14.063v46.875h9.375
				v-18.75h32.813V281.25z M243.75,274.623V51.563h14.063V260.56L243.75,274.623z M250.378,281.25l12.122-12.122l12.122,12.122
				H250.378z M281.25,274.622l-14.063-14.063V51.563h14.063V274.622z"/>
			<path d="M173.438,18.75h-56.25c-5.17,0-9.375,4.205-9.375,9.375v42.188h9.375v-18.75h56.25v18.75h9.375V28.125
				C182.813,22.955,178.608,18.75,173.438,18.75z M131.251,42.188h-14.063V28.125h14.063V42.188z M150,42.188h-9.375V28.125H150
				V42.188z M173.438,42.188h-14.063V28.125h14.063V42.188z"/>
			<path d="M121.875,159.375c-2.489,0-4.856,0.511-7.031,1.392c-2.175-0.881-4.542-1.392-7.031-1.392
				c-10.341,0-18.75,8.409-18.75,18.75s8.409,18.75,18.75,18.75c2.489,0,4.856-0.511,7.031-1.392
				c2.175,0.881,4.542,1.392,7.031,1.392c10.341,0,18.75-8.409,18.75-18.75S132.216,159.375,121.875,159.375z M105.568,187.2
				c-4.084-1.017-7.13-4.683-7.13-9.075c0-4.392,3.047-8.058,7.13-9.075c-1.509,2.705-2.442,5.766-2.442,9.075
				C103.126,181.434,104.059,184.495,105.568,187.2z M114.844,184.261c-1.439-1.65-2.344-3.778-2.344-6.136
				c0-2.358,0.905-4.486,2.344-6.136c1.439,1.65,2.344,3.778,2.344,6.136C117.188,180.483,116.283,182.611,114.844,184.261z
				 M124.12,187.2c1.509-2.705,2.442-5.766,2.442-9.075c0-3.309-0.933-6.37-2.442-9.075c4.083,1.017,7.13,4.683,7.13,9.075
				C131.25,182.517,128.203,186.183,124.12,187.2z"/>
		</g>
	</g>
</g>
<g>
</g>
<g>
</g>
<g>
</g>
<g>
</g>
<g>
</g>
<g>
</g>
<g>
</g>
<g>
</g>
<g>
</g>
<g>
</g>
<g>
</g>
<g>
</g>
<g>
</g>
<g>
</g>
<g>
</g>
</svg>
