<?xml version="1.0" encoding="iso-8859-1"?>
<!-- Generator: Adobe Illustrator 19.0.0, SVG Export Plug-In . SVG Version: 6.00 Build 0)  -->
<svg version="1.1" id="Layer_1" xmlns="http://www.w3.org/2000/svg" xmlns:xlink="http://www.w3.org/1999/xlink" x="0px" y="0px"
	 viewBox="0 0 442.5 442.5" style="enable-background:new 0 0 442.5 442.5;" xml:space="preserve">
<g transform="translate(0 -540.36)">
	<g>
		<g>
			<path d="M207.8,676.51c-1.4-2-3.7-3.2-6.1-3.2h-36.5c-3.2,0-6.1,2.1-7.1,5.1l-12.4,36.1c-0.8,2.3-0.4,4.8,1,6.8
				c1.4,1.9,3.7,3.1,6.1,3.1h35.8v0c3.1,0,5.9-2,6.9-4.9l13.2-36.1C209.5,681.11,209.2,678.51,207.8,676.51z M183.3,709.41h-20
				l7.3-21.1H191L183.3,709.41z"/>
			<path d="M167.9,780.31c-3.9-1.4-8.2,0.5-9.7,4.4L117,894.51c-1.4,3.9,0.5,8.2,4.4,9.7c0.8,0.3,1.7,0.5,2.6,0.5
				c3.1,0,5.9-1.8,7.1-4.9l41.2-109.8C173.7,786.11,171.8,781.81,167.9,780.31z"/>
			<path d="M123.4,826.91l13.2-36.9c1.4-3.9-0.6-8.2-4.5-9.6c-3.9-1.4-8.2,0.6-9.6,4.5l-13.2,36.9c-1.4,3.9,0.6,8.2,4.5,9.6
				c0.8,0.3,1.7,0.4,2.5,0.4C119.3,831.81,122.2,829.91,123.4,826.91z"/>
			<path d="M435,581.61H7.5c-4.1,0-7.5,3.4-7.5,7.5v112.1c0,4.1,3.4,7.5,7.5,7.5h105.3l-75.9,223c-0.8,2.3-0.4,4.8,1,6.8
				c1.4,2,3.7,3.1,6.1,3.1h178.8c3.2,0,6-2,7.1-5l80-227.9H435c4.1,0,7.5-3.4,7.5-7.5v-112.1C442.5,585.01,439.1,581.61,435,581.61z
				 M54.5,926.61l93.6-275.1H241l-97.4,275.1H54.5z M159.5,926.61l97.4-275.1h18.3l-95.1,275.1H159.5z M217.4,926.61h-21.5
				l95.2-275.1h23L217.4,926.61z M427.5,693.71H315.1l14.8-42.2h37.4c4.1,0,7.5-3.4,7.5-7.5s-3.4-7.5-7.5-7.5H75.1
				c-4.1,0-7.5,3.4-7.5,7.5s3.4,7.5,7.5,7.5h57.1l-14.4,42.2H15v-97.1h412.5V693.71z"/>
		</g>
	</g>
</g>
<g>
</g>
<g>
</g>
<g>
</g>
<g>
</g>
<g>
</g>
<g>
</g>
<g>
</g>
<g>
</g>
<g>
</g>
<g>
</g>
<g>
</g>
<g>
</g>
<g>
</g>
<g>
</g>
<g>
</g>
</svg>
